<svg aria-label="Cineplex logo" role="img" fill="none" xmlns="http://www.w3.org/2000/svg" viewBox="0 0 334 90">
    <path fill-rule="evenodd" clip-rule="evenodd" d="M43.29 55.426a27.528 27.528 0 0 0-5.741-2.64 31.615 31.615 0 0 0-5.31-1.378 40.031 40.031 0 0 0-6.65-.607 35.034 35.034 0 0 0-9.138 1.205 24.92 24.92 0 0 0-7.897 3.666 19.242 19.242 0 0 0-5.547 6.069A16.465 16.465 0 0 0 .9 70.188a16.688 16.688 0 0 0 2.107 8.473 19.585 19.585 0 0 0 5.452 6.115 22.267 22.267 0 0 0 7.658 3.572 34.269 34.269 0 0 0 8.679 1.215c2.552.031 5.1-.19 7.61-.658a41.586 41.586 0 0 0 6.346-1.803s2.193-.9 4.758-2.269l-5.036-5.052a30.87 30.87 0 0 1-3.313 1.548 32.198 32.198 0 0 1-4.88 1.423 31.009 31.009 0 0 1-5.998.602 17.009 17.009 0 0 1-5.457-.903 14.704 14.704 0 0 1-4.789-2.67 13.748 13.748 0 0 1-3.396-4.215 11.729 11.729 0 0 1-1.294-5.557 12.58 12.58 0 0 1 1.152-5.513 11.02 11.02 0 0 1 3.248-4.042 14.603 14.603 0 0 1 4.937-2.459 22.632 22.632 0 0 1 6.261-.815c2.01-.014 4.019.145 6.002.476.869.17 1.672.362 2.417.575a20.528 20.528 0 0 1 4.885 2.254l5.041-5.059ZM56.441 89.25h-8.427V51.293h8.427V89.25Zm90.345 0h-35.891V51.293h35.052v6.41h-26.581v9.466h18.115v6.357h-18.115v9.37h27.42v6.353Zm34.825-23.004c1.244-.598 1.859-1.818 1.859-3.663a3.955 3.955 0 0 0-1.859-3.742 9.17 9.17 0 0 0-4.64-1.08h-15.344v9.39h15.344a10.617 10.617 0 0 0 4.64-.905Zm6.441-12.354c2.58 1.665 3.87 4.562 3.87 8.691.002 4.14-1.288 6.997-3.87 8.573-2.586 1.582-6.46 2.373-11.623 2.373h-14.802l.02 15.674h-8.474V51.397h23.256c5.159-.005 9.033.827 11.623 2.495Zm46.066 35.402h-37.105v-38l8.329-.02v31.672h28.776v6.348Zm42.227-.044h-35.893V51.293h35.054v6.41h-26.58v9.427h18.114v6.357h-18.114v9.409h27.419v6.353Zm54.647-35.606c.151.005.302-.012.447-.053a.412.412 0 0 0 .263-.408.399.399 0 0 0-.172-.382 1.165 1.165 0 0 0-.559-.096h-.39v.94h.411Zm.775.218a.642.642 0 0 1 .199.173.755.755 0 0 1 .143.402v.385a.817.817 0 0 0 .023.139l.016.031h-.432v-.025a.048.048 0 0 1-.007-.031l-.015-.083v-.206c0-.3-.073-.5-.239-.597a1.151 1.151 0 0 0-.514-.083h-.36v1.025h-.461v-2.6h.918c.237-.012.474.02.7.092a.646.646 0 0 1 .41.66.563.563 0 0 1-.257.51.969.969 0 0 1-.376.129.632.632 0 0 1 .252.079Zm1.199.623c.101-.25.15-.516.145-.785a2.044 2.044 0 0 0-.907-1.703 2.043 2.043 0 0 0-2.566 3.153 1.947 1.947 0 0 0 1.439.602 1.98 1.98 0 0 0 1.449-.602c.19-.19.34-.416.44-.665Zm.084-2.1a2.369 2.369 0 1 1-4.233.63 2.373 2.373 0 0 1 3.171-1.5c.432.179.802.481 1.062.87Zm-15.575 36.725L304.006 75.43 290.537 89.11H280.22l18.635-18.91-18.635-18.925h10.286l13.499 13.698 13.499-13.698h10.288l-18.635 18.925 18.635 18.91h-10.317Zm-213.027-3.027v3.078h-7.305v-.01L70.205 61.791V89.16h-7.306V51.205h7.306v.023l26.938 27.42V51.204h7.305v34.877Z" fill="#000"></path>
    <path fill-rule="evenodd" clip-rule="evenodd" d="M158.134 0C119.709.749 89.4 9.362 89.4 19.879c0 10.736 31.582 19.487 71.14 19.915l.232-1.484c-32.771-.417-58.895-8.191-58.895-17.726 0-9.306 24.905-16.933 56.583-17.677L158.134 0Zm10.88 0c38.425.749 68.734 9.362 68.734 19.879 0 10.736-31.582 19.487-71.14 19.915l-.232-1.484c32.771-.417 58.895-8.191 58.895-17.726 0-9.306-24.905-16.933-56.583-17.677L169.014 0Zm-3.095 35.591c24.648-.35 44.258-6.189 44.258-13.34v-.001c0-6.944-18.499-12.65-42.144-13.293l.328-2.924c27.675.692 49.39 7.36 49.39 15.49 0 8.346-22.879 15.156-51.603 15.538l-.229-1.47Zm36.796-12.434c0-5.762-15.338-10.503-35.008-11.085l-.328 2.924c15.677.526 27.837 4.305 27.837 8.89 0 4.774-13.165 8.673-29.761 8.943l.229 1.459c20.632-.305 37.031-5.172 37.031-11.131Zm-85.744-.907c0 7.152 19.61 12.991 44.258 13.341l-.23 1.47c-28.723-.382-51.602-7.192-51.602-15.538 0-8.13 21.714-14.798 49.39-15.49l.328 2.924c-23.646.643-42.144 6.349-42.144 13.293Zm42.47-10.178c-19.67.582-35.008 5.323-35.008 11.085 0 5.96 16.399 10.826 37.031 11.13l.229-1.458c-16.596-.27-29.762-4.17-29.762-8.943 0-4.585 12.161-8.364 27.838-8.89l-.328-2.924Z" fill="#FFCA05"></path>
</svg>